<svg xmlns="http://www.w3.org/2000/svg" viewBox="0 0 1200 800" width="1200" height="800">
<title>Kumarakom backwaters — placeholder (couples-02-backwaters)</title>
<defs>
<linearGradient id="bg" x1="0" y1="0" x2=".35" y2="1"><stop offset="0" stop-color="#FFF6F3"/><stop offset="1" stop-color="#F8DCD7"/></linearGradient>
<radialGradient id="disc"><stop offset="0" stop-color="#F6C4C2" stop-opacity=".7"/><stop offset=".7" stop-color="#F8D8D5" stop-opacity=".4"/><stop offset="1" stop-color="#F8D8D5" stop-opacity="0"/></radialGradient>
<radialGradient id="glow"><stop offset="0" stop-color="#FFB38F" stop-opacity=".8"/><stop offset=".45" stop-color="#FFD2B8" stop-opacity=".4"/><stop offset="1" stop-color="#FFE9DC" stop-opacity="0"/></radialGradient>
<style>
.l{fill:none;stroke:#9E1B32;stroke-width:1.75;stroke-linecap:round;stroke-linejoin:round;vector-effect:non-scaling-stroke;animation:draw 2.8s cubic-bezier(.65,0,.25,1) both}
.t{stroke-width:1.15;stroke-opacity:.9}
.f{fill:#9E1B32}
.tx{fill:#9E1B32;font-family:Helvetica,Arial,sans-serif}
.fl{transform-box:fill-box;transform-origin:50% 100%;animation:flick 2.4s ease-in-out infinite alternate}
@keyframes draw{from{stroke-dasharray:1;stroke-dashoffset:1}to{stroke-dasharray:1;stroke-dashoffset:0}}
@keyframes flick{0%{transform:scale(1,1)}35%{transform:scale(.94,1.08)}70%{transform:scale(1.04,.95)}100%{transform:scale(.97,1.05)}}
@media (prefers-reduced-motion:reduce){.l,.fl{animation:none}}
</style>
</defs>
<rect width="1200" height="800" fill="url(#bg)"/>
<circle cx="600" cy="304" r="240" fill="url(#disc)"/><g transform="translate(600 496) scale(1.1)"><path class="l" style="animation-delay:0.15s" pathLength="1" d="M-320,-24 C-200,14 200,14 320,-24 C326,-34 334,-40 340,-38"/><path class="l" style="animation-delay:0.18s" pathLength="1" d="M-320,-24 C-328,-34 -334,-42 -342,-40"/><path class="l" style="animation-delay:0.22s" pathLength="1" d="M-310,-14 C-200,40 200,40 310,-14"/><path class="l" style="animation-delay:0.26s" pathLength="1" d="M-190,-8 C-190,-120 190,-120 190,-8"/><path class="l t" style="animation-delay:0.29s" pathLength="1" d="M-150,-10 C-150,-96 150,-96 150,-10"/><path class="l t" style="animation-delay:0.33s" pathLength="1" d="M-150,-8 L-150,-62.6 M-120,-8 L-120,-76.1 M-90,-8 L-90,-86.5 M-60,-8 L-60,-94 M-30,-8 L-30,-98.5 M0,-8 L0,-100 M30,-8 L30,-98.5 M60,-8 L60,-94 M90,-8 L90,-86.5 M120,-8 L120,-76.1 M150,-8 L150,-62.6 "/><path class="l t" style="animation-delay:0.36s" pathLength="1" d="M-120,-40 L-60,-40 L-60,-10 M60,-40 L120,-40 L120,-10"/><path class="l t" style="animation-delay:0.40s" pathLength="1" d="M230,-20 L250,-90 M250,-90 L270,-14"/></g><g transform="translate(600 560) scale(1)"><path class="l t" style="animation-delay:0.43s" pathLength="1" d="M-520.2,0 Q-475.4,5 -430.7,0 M-366.7,0 Q-310.6,5 -254.5,0 M-184.6,0 Q-132.9,5 -81.3,0 M-7.6,0 Q56.7,5 120.9,0 M201.6,0 Q271,5 340.4,0 M396.7,0 Q441.1,5 485.4,0 M-491.5,22 Q-453.6,27 -415.7,22 M-381,22 Q-343.8,27 -306.7,22 M-223.7,22 Q-168.3,27 -112.9,22 M-38.6,22 Q29.2,27 96.9,22 M174.1,22 Q204.5,27 234.8,22 M279.1,22 Q339.1,27 399,22 M435.2,22 Q501,27 550,22 M-511.9,44 Q-456.3,49 -400.7,44 M-338.6,44 Q-296.4,49 -254.3,44 M-172,44 Q-123.8,49 -75.6,44 M6.8,44 Q40.3,49 73.9,44 M145.1,44 Q186.8,49 228.5,44 M282.2,44 Q311.5,49 340.9,44 M406.3,44 Q437.8,49 469.4,44 M-500.7,66 Q-463.8,71 -426.9,66 M-355.9,66 Q-292,71 -228.2,66 M-191.2,66 Q-155.8,71 -120.4,66 M-35.2,66 Q-15.1,71 4.9,66 M42.9,66 Q82.7,71 122.6,66 M153.9,66 Q208.5,71 263.2,66 M347,66 Q375.7,71 404.3,66 M447.1,66 Q514.4,71 550,66 M-539.5,88 Q-513.6,93 -487.8,88 M-420.2,88 Q-399.4,93 -378.6,88 M-299.9,88 Q-250.3,93 -200.7,88 M-125.7,88 Q-99.3,93 -72.9,88 M-23,88 Q32.7,93 88.5,88 M175.8,88 Q223.2,93 270.6,88 M335.9,88 Q394.7,93 453.6,88 M525.8,88 Q582.4,93 550,88 M-544,110 Q-521.7,115 -499.4,110 M-432.7,110 Q-401.4,115 -370.2,110 M-305.3,110 Q-272.7,115 -240.2,110 M-196.8,110 Q-145.8,115 -94.8,110 M-27,110 Q33.6,115 94.2,110 M138.6,110 Q203.9,115 269.2,110 M302.3,110 Q356.9,115 411.4,110 M465.8,110 Q525.4,115 550,110 "/></g><g transform="translate(144 528) scale(0.9)"><path class="l" style="animation-delay:0.47s" pathLength="1" d="M-12,0 C2,-154 22,-308 52,-440"/><path class="l" style="animation-delay:0.50s" pathLength="1" d="M12,0 C34,-154 52,-308 68,-438"/><path class="l t" style="animation-delay:0.54s" pathLength="1" d="M-9.6,-35.2 Q0.4,-31.2 10.4,-35.2 M-8.6,-66 Q1.4,-62 11.4,-66 M-7.1,-96.8 Q2.9,-92.8 12.9,-96.8 M-5,-127.6 Q5,-123.6 15,-127.6 M-2.2,-158.4 Q7.8,-154.4 17.8,-158.4 M1.1,-189.2 Q11.1,-185.2 21.1,-189.2 M5,-220 Q15,-216 25,-220 M9.5,-250.8 Q19.5,-246.8 29.5,-250.8 M14.6,-281.6 Q24.6,-277.6 34.6,-281.6 M20.2,-312.4 Q30.2,-308.4 40.2,-312.4 M26.5,-343.2 Q36.5,-339.2 46.5,-343.2 M33.4,-374 Q43.4,-370 53.4,-374 M40.8,-404.8 Q50.8,-400.8 60.8,-404.8 "/><path class="l" style="animation-delay:0.57s" pathLength="1" d="M60,-440 Q-37.6,-490.7 -135.3,-400.7"/><path class="l t" style="animation-delay:0.61s" pathLength="1" d="M30.7,-452 l-5.8,-28.1 M30.7,-452 l-23.8,37.1 M17,-455.5 l-8.6,-25.8 M17,-455.5 l-20.3,38 M3.4,-457.6 l-11.1,-23.4 M3.4,-457.6 l-16.8,38.5 M-10.3,-458.2 l-13.3,-20.7 M-10.3,-458.2 l-13.3,38.7 M-24,-457.6 l-15.1,-17.8 M-24,-457.6 l-10,38.4 M-37.6,-455.5 l-16.4,-15 M-37.6,-455.5 l-7,37.7 M-51.3,-452.1 l-17.2,-12.2 M-51.3,-452.1 l-4.2,36.7 M-65,-447.2 l-17.5,-9.5 M-65,-447.2 l-1.9,35.3 M-78.6,-441 l-17.5,-7 M-78.6,-441 l0.1,33.8 M-92.3,-433.5 l-17.1,-4.8 M-92.3,-433.5 l1.6,32.2 M-106,-424.5 l-16.4,-2.8 M-106,-424.5 l2.8,30.4 M-119.6,-414.2 l-15.5,-1.1 M-119.6,-414.2 l3.6,28.6 "/><path class="l" style="animation-delay:0.64s" pathLength="1" d="M60,-440 Q0.1,-530.3 -59.7,-440.3"/><path class="l t" style="animation-delay:0.68s" pathLength="1" d="M42,-463 l11.8,-26.5 M42,-463 l-33.1,22 M33.7,-471 l7.8,-26.1 M33.7,-471 l-30.3,25 M25.3,-477.2 l3.2,-25.2 M25.3,-477.2 l-26.9,28.2 M16.9,-481.6 l-1.9,-23.7 M16.9,-481.6 l-22.7,31.3 M8.5,-484.3 l-7.1,-21.3 M8.5,-484.3 l-17.6,34 M0.1,-485.2 l-11.8,-17.8 M0.1,-485.2 l-12,35.8 M-8.2,-484.3 l-15.5,-13.6 M-8.2,-484.3 l-6.4,36.2 M-16.6,-481.7 l-17.8,-9.3 M-16.6,-481.7 l-1.6,35.4 M-25,-477.3 l-18.7,-5.3 M-25,-477.3 l2.1,33.7 M-33.4,-471.1 l-18.6,-2 M-33.4,-471.1 l4.7,31.7 M-41.8,-463.2 l-17.8,0.6 M-41.8,-463.2 l6.3,29.5 M-50.1,-453.5 l-16.7,2.5 M-50.1,-453.5 l7.2,27.4 "/><path class="l" style="animation-delay:0.71s" pathLength="1" d="M60,-440 Q24.9,-585.7 -10.2,-495.7"/><path class="l t" style="animation-delay:0.75s" pathLength="1" d="M49.5,-478.4 l24.8,-18.1 M49.5,-478.4 l-34.2,6.6 M44.6,-492.7 l22.5,-18.2 M44.6,-492.7 l-32.8,8.5 M39.7,-504.7 l19.8,-18.4 M39.7,-504.7 l-31.4,10.8 M34.7,-514.3 l16.4,-18.9 M34.7,-514.3 l-29.7,13.8 M29.8,-521.7 l12,-19.5 M29.8,-521.7 l-27.6,17.8 M24.9,-526.8 l5.5,-20 M24.9,-526.8 l-24.1,23.2 M20,-529.5 l-3.8,-18.7 M20,-529.5 l-17.5,29.8 M15.1,-529.9 l-13.4,-13.2 M15.1,-529.9 l-7.3,34.2 M10.2,-528.1 l-18.6,-5.5 M10.2,-528.1 l1.9,33.7 M5.3,-523.9 l-19.4,0.4 M5.3,-523.9 l7.2,30.9 M0.4,-517.4 l-18.5,4 M0.4,-517.4 l9.5,28 M-4.6,-508.6 l-17,6.1 M-4.6,-508.6 l10.3,25.6 "/><path class="l" style="animation-delay:0.78s" pathLength="1" d="M60,-440 Q90.8,-571.5 121.6,-481.5"/><path class="l t" style="animation-delay:0.82s" pathLength="1" d="M69.2,-474.5 l34.1,0.5 M69.2,-474.5 l-24.9,-12 M73.5,-487.1 l32.8,2.5 M73.5,-487.1 l-22.5,-12.1 M77.9,-497.6 l31.4,4.9 M77.9,-497.6 l-19.7,-12.5 M82.2,-506 l29.7,8.2 M82.2,-506 l-16.1,-13.1 M86.5,-512.1 l27.4,12.7 M86.5,-512.1 l-11.1,-13.9 M90.8,-516.1 l23.2,19.1 M90.8,-516.1 l-3.4,-14.4 M95.1,-518 l14.8,26.2 M95.1,-518 l7.3,-11.9 M99.4,-517.6 l3.3,29.2 M99.4,-517.6 l16.6,-4.6 M103.7,-515.1 l-5,27.2 M103.7,-515.1 l20,3.3 M108,-510.4 l-9.1,24.1 M108,-510.4 l19.9,8.4 M112.3,-503.5 l-10.7,21.3 M112.3,-503.5 l18.6,11.4 M116.7,-494.5 l-11,19 M116.7,-494.5 l17,13 "/><path class="l" style="animation-delay:0.85s" pathLength="1" d="M60,-440 Q136.4,-546.9 212.7,-456.9"/><path class="l t" style="animation-delay:0.89s" pathLength="1" d="M82.9,-467.6 l32.9,16.7 M82.9,-467.6 l-11.2,-20.7 M93.6,-477.5 l30.2,19.2 M93.6,-477.5 l-7.5,-20.1 M104.3,-485.4 l27.1,21.9 M104.3,-485.4 l-3.6,-19.2 M115,-491.4 l23.4,24.4 M115,-491.4 l0.7,-17.8 M125.7,-495.5 l19.2,26.7 M125.7,-495.5 l5.1,-15.7 M136.4,-497.7 l14.4,28.3 M136.4,-497.7 l9.2,-13 M147.1,-497.9 l9.6,29.1 M147.1,-497.9 l12.7,-9.5 M157.7,-496.2 l5.1,28.9 M157.7,-496.2 l15.2,-5.8 M168.4,-492.5 l1.2,27.8 M168.4,-492.5 l16.7,-2.1 M179.1,-487 l-1.7,26.1 M179.1,-487 l17.2,1.3 M189.8,-479.5 l-3.8,24.2 M189.8,-479.5 l16.9,4.1 M200.5,-470 l-5.2,22.2 M200.5,-470 l16.1,6.4 "/><path class="l" style="animation-delay:0.92s" pathLength="1" d="M60,-440 Q146.4,-488.3 232.8,-398.3"/><path class="l t" style="animation-delay:0.96s" pathLength="1" d="M85.9,-451.4 l24.1,30.8 M85.9,-451.4 l5.3,-22.2 M98,-454.6 l20.4,31.9 M98,-454.6 l8.5,-19.9 M110.1,-456.4 l16.6,32.6 M110.1,-456.4 l11.3,-17.3 M122.2,-456.8 l12.9,32.9 M122.2,-456.8 l13.8,-14.4 M134.3,-456 l9.3,32.6 M134.3,-456 l15.7,-11.4 M146.4,-453.7 l6,31.9 M146.4,-453.7 l17.2,-8.3 M158.5,-450.1 l3.1,30.8 M158.5,-450.1 l18,-5.4 M170.6,-445.2 l0.7,29.4 M170.6,-445.2 l18.3,-2.6 M182.7,-438.9 l-1.3,27.8 M182.7,-438.9 l18.2,0 M194.8,-431.2 l-2.8,26 M194.8,-431.2 l17.7,2.2 M206.9,-422.2 l-3.9,24.2 M206.9,-422.2 l16.9,4.2 M219,-411.8 l-4.6,22.4 M219,-411.8 l15.9,5.9 "/><path class="l" style="animation-delay:0.99s" pathLength="1" d="M60,-440 Q154.9,-428.6 249.8,-338.6"/><path class="l t" style="animation-delay:1.03s" pathLength="1" d="M88.5,-434.8 l7.7,39.7 M88.5,-434.8 l22.4,-14.4 M101.8,-431.2 l5.6,38.5 M101.8,-431.2 l22.7,-12 M115,-426.8 l3.7,37.2 M115,-426.8 l22.7,-9.7 M128.3,-421.6 l2,35.7 M128.3,-421.6 l22.6,-7.4 M141.6,-415.6 l0.5,34.2 M141.6,-415.6 l22.2,-5.3 M154.9,-408.9 l-0.7,32.6 M154.9,-408.9 l21.7,-3.4 M168.2,-401.4 l-1.8,30.9 M168.2,-401.4 l21,-1.5 M181.5,-393.2 l-2.6,29.3 M181.5,-393.2 l20.2,0.2 M194.8,-384.1 l-3.3,27.6 M194.8,-384.1 l19.2,1.7 M208,-374.3 l-3.8,25.9 M208,-374.3 l18.2,3.1 M221.3,-363.8 l-4.2,24.2 M221.3,-363.8 l17,4.4 M234.6,-352.4 l-4.4,22.5 M234.6,-352.4 l15.8,5.6 "/><path class="l" style="animation-delay:1.06s" pathLength="1" d="M60,-440 Q-32.8,-510.5 -125.5,-420.5"/><path class="l t" style="animation-delay:1.09s" pathLength="1" d="M32.2,-457.5 l0,-28.6 M32.2,-457.5 l-27.7,32.7 M19.2,-463.3 l-3.3,-26.8 M19.2,-463.3 l-24.3,34.4 M6.2,-467.4 l-6.6,-24.7 M6.2,-467.4 l-20.6,35.7 M-6.8,-470 l-9.6,-22.2 M-6.8,-470 l-16.8,36.6 M-19.8,-471 l-12.2,-19.4 M-19.8,-471 l-13,37 M-32.8,-470.4 l-14.3,-16.4 M-32.8,-470.4 l-9.3,36.9 M-45.8,-468.2 l-15.8,-13.4 M-45.8,-468.2 l-6,36.3 M-58.7,-464.5 l-16.8,-10.3 M-58.7,-464.5 l-3,35.2 M-71.7,-459.2 l-17.1,-7.5 M-71.7,-459.2 l-0.6,33.8 M-84.7,-452.3 l-17,-5 M-84.7,-452.3 l1.4,32.2 M-97.7,-443.9 l-16.4,-2.8 M-97.7,-443.9 l2.9,30.4 M-110.7,-433.9 l-15.6,-0.8 M-110.7,-433.9 l3.9,28.6 "/><circle class="l" style="animation-delay:1.13s" pathLength="1" cx="50" cy="-426" r="9"/><circle class="l" style="animation-delay:1.17s" pathLength="1" cx="68" cy="-424" r="9"/><circle class="l" style="animation-delay:1.20s" pathLength="1" cx="60" cy="-414" r="9"/></g><g transform="translate(1080 544) scale(0.8)"><path class="l" style="animation-delay:1.24s" pathLength="1" d="M-12,0 C-18,-140 -38,-280 -68,-400"/><path class="l" style="animation-delay:1.27s" pathLength="1" d="M12,0 C-18,-140 -36,-280 -52,-398"/><path class="l t" style="animation-delay:1.30s" pathLength="1" d="M-10.4,-32 Q-0.4,-28 9.6,-32 M-11.4,-60 Q-1.4,-56 8.6,-60 M-12.9,-88 Q-2.9,-84 7.1,-88 M-15,-116 Q-5,-112 5,-116 M-17.8,-144 Q-7.8,-140 2.2,-144 M-21.1,-172 Q-11.1,-168 -1.1,-172 M-25,-200 Q-15,-196 -5,-200 M-29.5,-228 Q-19.5,-224 -9.5,-228 M-34.6,-256 Q-24.6,-252 -14.6,-256 M-40.2,-284 Q-30.2,-280 -20.2,-284 M-46.5,-312 Q-36.5,-308 -26.5,-312 M-53.4,-340 Q-43.4,-336 -33.4,-340 M-60.8,-368 Q-50.8,-364 -40.8,-368 "/><path class="l" style="animation-delay:1.34s" pathLength="1" d="M-60,-400 Q-155.3,-450.2 -250.7,-360.2"/><path class="l t" style="animation-delay:1.38s" pathLength="1" d="M-88.6,-411.9 l-5.7,-28.1 M-88.6,-411.9 l-23.8,37.1 M-102,-415.3 l-8.6,-25.9 M-102,-415.3 l-20.3,38 M-115.3,-417.3 l-11.2,-23.3 M-115.3,-417.3 l-16.8,38.5 M-128.6,-418 l-13.4,-20.6 M-128.6,-418 l-13.2,38.7 M-142,-417.2 l-15.2,-17.8 M-142,-417.2 l-9.9,38.4 M-155.3,-415.1 l-16.5,-14.9 M-155.3,-415.1 l-6.8,37.7 M-168.7,-411.7 l-17.3,-12 M-168.7,-411.7 l-4,36.7 M-182,-406.8 l-17.7,-9.3 M-182,-406.8 l-1.7,35.4 M-195.4,-400.6 l-17.6,-6.8 M-195.4,-400.6 l0.3,33.8 M-208.7,-393 l-17.2,-4.6 M-208.7,-393 l1.9,32.1 M-222.1,-384 l-16.5,-2.6 M-222.1,-384 l3,30.4 M-235.4,-373.7 l-15.6,-0.9 M-235.4,-373.7 l3.8,28.6 "/><path class="l" style="animation-delay:1.41s" pathLength="1" d="M-60,-400 Q-138.3,-508.9 -216.6,-418.9"/><path class="l t" style="animation-delay:1.45s" pathLength="1" d="M-83.5,-428.2 l11.1,-26.8 M-83.5,-428.2 l-32.9,22.8 M-94.5,-438.3 l7.5,-26.1 M-94.5,-438.3 l-30.2,25.3 M-105.4,-446.4 l3.6,-25.2 M-105.4,-446.4 l-27.1,27.8 M-116.4,-452.6 l-0.6,-23.8 M-116.4,-452.6 l-23.5,30.3 M-127.4,-456.8 l-4.9,-21.8 M-127.4,-456.8 l-19.3,32.6 M-138.3,-459.1 l-9,-19.1 M-138.3,-459.1 l-14.7,34.2 M-149.3,-459.5 l-12.4,-15.7 M-149.3,-459.5 l-9.9,35 M-160.2,-457.9 l-15,-12 M-160.2,-457.9 l-5.4,34.8 M-171.2,-454.3 l-16.5,-8.3 M-171.2,-454.3 l-1.6,33.8 M-182.2,-448.8 l-17,-5 M-182.2,-448.8 l1.4,32.2 M-193.1,-441.4 l-16.8,-2.1 M-193.1,-441.4 l3.5,30.3 M-204.1,-432 l-16,0.2 M-204.1,-432 l4.9,28.3 "/><path class="l" style="animation-delay:1.48s" pathLength="1" d="M-60,-400 Q-94.5,-543.6 -128.9,-453.6"/><path class="l t" style="animation-delay:1.52s" pathLength="1" d="M-70.3,-437.8 l24.8,-18.1 M-70.3,-437.8 l-34.2,6.6 M-75.2,-451.9 l22.5,-18.2 M-75.2,-451.9 l-32.8,8.5 M-80,-463.6 l19.8,-18.4 M-80,-463.6 l-31.4,10.8 M-84.8,-473.1 l16.4,-18.9 M-84.8,-473.1 l-29.7,13.8 M-89.6,-480.3 l11.8,-19.6 M-89.6,-480.3 l-27.6,17.9 M-94.5,-485.2 l5.2,-20.1 M-94.5,-485.2 l-24,23.5 M-99.3,-487.8 l-4.2,-18.7 M-99.3,-487.8 l-17.2,30.2 M-104.1,-488.1 l-13.9,-12.9 M-104.1,-488.1 l-6.8,34.4 M-108.9,-486.2 l-18.8,-5.1 M-108.9,-486.2 l2.4,33.7 M-113.8,-481.9 l-19.5,0.7 M-113.8,-481.9 l7.5,30.8 M-118.6,-475.3 l-18.5,4.2 M-118.6,-475.3 l9.7,27.9 M-123.4,-466.5 l-17,6.2 M-123.4,-466.5 l10.4,25.5 "/><path class="l" style="animation-delay:1.55s" pathLength="1" d="M-60,-400 Q-32.4,-521 -4.8,-431"/><path class="l t" style="animation-delay:1.58s" pathLength="1" d="M-51.7,-431.6 l34.1,0.4 M-51.7,-431.6 l-25,-11.9 M-47.9,-443 l32.8,2.4 M-47.9,-443 l-22.6,-12.1 M-44,-452.4 l31.4,5 M-44,-452.4 l-19.6,-12.5 M-40.1,-459.8 l29.7,8.6 M-40.1,-459.8 l-15.8,-13.3 M-36.3,-465.1 l27.1,13.7 M-36.3,-465.1 l-10.1,-14.3 M-32.4,-468.3 l22,20.9 M-32.4,-468.3 l-1.3,-14.6 M-28.5,-469.4 l11.8,28.1 M-28.5,-469.4 l10.6,-10.7 M-24.7,-468.5 l-0.2,29.4 M-24.7,-468.5 l18.8,-1.9 M-20.8,-465.5 l-7.3,26.5 M-20.8,-465.5 l20.8,5.5 M-16.9,-460.4 l-10.4,23.3 M-16.9,-460.4 l20.1,10 M-13.1,-453.3 l-11.5,20.7 M-13.1,-453.3 l18.6,12.4 M-9.2,-444.1 l-11.6,18.5 M-9.2,-444.1 l16.9,13.7 "/><path class="l" style="animation-delay:1.60s" pathLength="1" d="M-60,-400 Q14,-504.5 88,-414.5"/><path class="l t" style="animation-delay:1.60s" pathLength="1" d="M-37.8,-427 l32.9,16.6 M-37.8,-427 l-11.2,-20.7 M-27.4,-436.6 l30.2,19.2 M-27.4,-436.6 l-7.6,-20.1 M-17.1,-444.3 l27.1,21.9 M-17.1,-444.3 l-3.5,-19.2 M-6.7,-450 l23.3,24.5 M-6.7,-450 l0.8,-17.8 M3.6,-453.9 l19,26.9 M3.6,-453.9 l5.3,-15.7 M14,-455.9 l14.2,28.5 M14,-455.9 l9.5,-12.8 M24.4,-455.9 l9.2,29.2 M24.4,-455.9 l13.1,-9.3 M34.7,-454.1 l4.7,28.9 M34.7,-454.1 l15.6,-5.5 M45.1,-450.3 l0.8,27.8 M45.1,-450.3 l17,-1.7 M55.4,-444.7 l-2.1,26.1 M55.4,-444.7 l17.4,1.6 M65.8,-437.1 l-4.1,24.2 M65.8,-437.1 l17,4.4 M76.1,-427.7 l-5.4,22.1 M76.1,-427.7 l16.2,6.7 "/><path class="l" style="animation-delay:1.60s" pathLength="1" d="M-60,-400 Q18.4,-446.6 96.9,-356.6"/><path class="l t" style="animation-delay:1.60s" pathLength="1" d="M-36.5,-410.9 l24.4,30.5 M-36.5,-410.9 l4.9,-22.2 M-25.5,-413.9 l20.5,31.8 M-25.5,-413.9 l8.3,-19.9 M-14.5,-415.5 l16.5,32.7 M-14.5,-415.5 l11.5,-17.2 M-3.5,-415.8 l12.4,33.1 M-3.5,-415.8 l14.2,-14.2 M7.4,-414.8 l8.6,32.9 M7.4,-414.8 l16.3,-11 M18.4,-412.4 l5.1,32.1 M18.4,-412.4 l17.8,-7.8 M29.4,-408.7 l2.1,30.9 M29.4,-408.7 l18.7,-4.6 M40.4,-403.7 l-0.4,29.4 M40.4,-403.7 l19,-1.7 M51.4,-397.3 l-2.3,27.7 M51.4,-397.3 l18.8,0.9 M62.3,-389.6 l-3.8,25.9 M62.3,-389.6 l18.2,3.1 M73.3,-380.5 l-4.8,24 M73.3,-380.5 l17.3,5.1 M84.3,-370.1 l-5.5,22.1 M84.3,-370.1 l16.2,6.7 "/><path class="l" style="animation-delay:1.60s" pathLength="1" d="M-60,-400 Q14,-397.7 88,-307.7"/><path class="l t" style="animation-delay:1.60s" pathLength="1" d="M-37.8,-397.3 l8.8,39.5 M-37.8,-397.3 l21.5,-15.1 M-27.4,-394.7 l5.9,38.5 M-27.4,-394.7 l22.4,-12.2 M-17.1,-391.3 l3.3,37.2 M-17.1,-391.3 l23,-9.4 M-6.7,-387 l1,35.8 M-6.7,-387 l23.2,-6.7 M3.6,-381.8 l-0.9,34.2 M3.6,-381.8 l23.1,-4.2 M14,-375.8 l-2.5,32.5 M14,-375.8 l22.7,-1.9 M24.4,-368.9 l-3.8,30.7 M24.4,-368.9 l22,0.2 M34.7,-361.1 l-4.8,28.9 M34.7,-361.1 l21.2,2.1 M45.1,-352.5 l-5.5,27.1 M45.1,-352.5 l20.2,3.7 M55.5,-343 l-6,25.3 M55.5,-343 l19,5.2 M65.8,-332.7 l-6.2,23.6 M65.8,-332.7 l17.8,6.4 M76.2,-321.5 l-6.3,21.8 M76.2,-321.5 l16.4,7.5 "/><path class="l" style="animation-delay:1.60s" pathLength="1" d="M-60,-400 Q-157.2,-472.5 -254.4,-382.5"/><path class="l t" style="animation-delay:1.60s" pathLength="1" d="M-89.2,-418.1 l-0.1,-28.6 M-89.2,-418.1 l-27.6,32.9 M-102.8,-424 l-3.4,-26.8 M-102.8,-424 l-24.2,34.4 M-116.4,-428.4 l-6.5,-24.7 M-116.4,-428.4 l-20.7,35.6 M-130,-431.1 l-9.4,-22.3 M-130,-431.1 l-17,36.5 M-143.6,-432.3 l-11.9,-19.6 M-143.6,-432.3 l-13.3,36.9 M-157.2,-431.8 l-14,-16.6 M-157.2,-431.8 l-9.7,36.8 M-170.8,-429.8 l-15.5,-13.6 M-170.8,-429.8 l-6.4,36.2 M-184.4,-426.2 l-16.4,-10.7 M-184.4,-426.2 l-3.5,35.2 M-198.1,-421 l-16.8,-7.9 M-198.1,-421 l-1.1,33.8 M-211.7,-414.2 l-16.7,-5.4 M-211.7,-414.2 l0.9,32.2 M-225.3,-405.8 l-16.2,-3.1 M-225.3,-405.8 l2.4,30.5 M-238.9,-395.8 l-15.4,-1.2 M-238.9,-395.8 l3.5,28.7 "/><circle class="l" style="animation-delay:1.60s" pathLength="1" cx="-70" cy="-386" r="9"/><circle class="l" style="animation-delay:1.60s" pathLength="1" cx="-52" cy="-384" r="9"/><circle class="l" style="animation-delay:1.60s" pathLength="1" cx="-60" cy="-374" r="9"/></g><g transform="translate(744 176) scale(1)"><path class="l t" style="animation-delay:1.60s" pathLength="1" d="M128,-35.5 Q132.2,-39.7 136.4,-35.5 Q140.7,-39.7 144.9,-35.5 M-84.6,35.3 Q-78,28.6 -71.4,35.3 Q-64.8,28.6 -58.2,35.3 M127.8,-17.8 Q132.4,-22.4 137,-17.8 Q141.6,-22.4 146.2,-17.8 M-152.4,-2.4 Q-146.7,-8.1 -141.1,-2.4 Q-135.4,-8.1 -129.7,-2.4 M-118.4,-14.2 Q-113,-19.6 -107.5,-14.2 Q-102.1,-19.6 -96.6,-14.2 M-90.2,-35.6 Q-86.1,-39.7 -82,-35.6 Q-77.8,-39.7 -73.7,-35.6 "/></g>
<rect x="54" y="54" width="1092" height="692" fill="none" stroke="#9E1B32" stroke-opacity=".45" stroke-width="1" vector-effect="non-scaling-stroke"/><g fill="#9E1B32" font-family="Georgia, 'Times New Roman', serif"><text x="78" y="719.6" font-size="31.2" font-style="italic">Kumarakom backwaters</text><text x="1122" y="719.6" font-size="16.8" letter-spacing="4.8" text-anchor="end" opacity=".8" font-family="Helvetica, Arial, sans-serif">COUPLES 02 BACKWATERS</text></g>
</svg>
