<svg xmlns="http://www.w3.org/2000/svg" viewBox="0 0 1200 1500" width="1200" height="1500">
<title>Little feet — placeholder (story-04-detail)</title>
<defs>
<linearGradient id="bg" x1="0" y1="0" x2=".35" y2="1"><stop offset="0" stop-color="#FFF6F3"/><stop offset="1" stop-color="#F8DCD7"/></linearGradient>
<radialGradient id="disc"><stop offset="0" stop-color="#F6C4C2" stop-opacity=".7"/><stop offset=".7" stop-color="#F8D8D5" stop-opacity=".4"/><stop offset="1" stop-color="#F8D8D5" stop-opacity="0"/></radialGradient>
<radialGradient id="glow"><stop offset="0" stop-color="#FFB38F" stop-opacity=".8"/><stop offset=".45" stop-color="#FFD2B8" stop-opacity=".4"/><stop offset="1" stop-color="#FFE9DC" stop-opacity="0"/></radialGradient>
<style>
.l{fill:none;stroke:#9E1B32;stroke-width:1.75;stroke-linecap:round;stroke-linejoin:round;vector-effect:non-scaling-stroke;animation:draw 2.8s cubic-bezier(.65,0,.25,1) both}
.t{stroke-width:1.15;stroke-opacity:.9}
.f{fill:#9E1B32}
.tx{fill:#9E1B32;font-family:Helvetica,Arial,sans-serif}
.fl{transform-box:fill-box;transform-origin:50% 100%;animation:flick 2.4s ease-in-out infinite alternate}
@keyframes draw{from{stroke-dasharray:1;stroke-dashoffset:1}to{stroke-dasharray:1;stroke-dashoffset:0}}
@keyframes flick{0%{transform:scale(1,1)}35%{transform:scale(.94,1.08)}70%{transform:scale(1.04,.95)}100%{transform:scale(.97,1.05)}}
@media (prefers-reduced-motion:reduce){.l,.fl{animation:none}}
</style>
</defs>
<rect width="1200" height="1500" fill="url(#bg)"/>
<circle cx="600" cy="720" r="432" fill="url(#disc)"/><g transform="translate(480 1020) scale(1.7)"><g transform="rotate(-10)"><path class="l" style="animation-delay:0.15s" pathLength="1" d="M0,0 C-34,0 -44,-60 -36,-110 C-30,-150 30,-158 36,-118 C42,-80 32,-30 26,-12 C20,0 10,0 0,0 Z"/><circle class="l" style="animation-delay:0.18s" pathLength="1" cx="-24" cy="-160" r="13"/><circle class="l" style="animation-delay:0.22s" pathLength="1" cx="2" cy="-172" r="10"/><circle class="l" style="animation-delay:0.26s" pathLength="1" cx="22" cy="-168" r="8"/><circle class="l" style="animation-delay:0.29s" pathLength="1" cx="36" cy="-156" r="7"/><circle class="l" style="animation-delay:0.33s" pathLength="1" cx="44" cy="-140" r="6"/><path class="l t" style="animation-delay:0.36s" pathLength="1" d="M-20,-40 C-6,-30 10,-32 20,-44"/></g></g><g transform="translate(744 960) scale(1.7)"><g transform="rotate(12)"><g transform="scale(-1 1)"><path class="l" style="animation-delay:0.40s" pathLength="1" d="M0,0 C-34,0 -44,-60 -36,-110 C-30,-150 30,-158 36,-118 C42,-80 32,-30 26,-12 C20,0 10,0 0,0 Z"/><circle class="l" style="animation-delay:0.43s" pathLength="1" cx="-24" cy="-160" r="13"/><circle class="l" style="animation-delay:0.47s" pathLength="1" cx="2" cy="-172" r="10"/><circle class="l" style="animation-delay:0.50s" pathLength="1" cx="22" cy="-168" r="8"/><circle class="l" style="animation-delay:0.54s" pathLength="1" cx="36" cy="-156" r="7"/><circle class="l" style="animation-delay:0.57s" pathLength="1" cx="44" cy="-140" r="6"/><path class="l t" style="animation-delay:0.61s" pathLength="1" d="M-20,-40 C-6,-30 10,-32 20,-44"/></g></g></g>
<rect x="54" y="54" width="1092" height="1392" fill="none" stroke="#9E1B32" stroke-opacity=".45" stroke-width="1" vector-effect="non-scaling-stroke"/><g fill="#9E1B32" font-family="Georgia, 'Times New Roman', serif"><text x="78" y="1419.6" font-size="31.2" font-style="italic">Little feet</text><text x="1122" y="1419.6" font-size="16.8" letter-spacing="4.8" text-anchor="end" opacity=".8" font-family="Helvetica, Arial, sans-serif">STORY 04 DETAIL</text></g>
</svg>
